<svg width="70" height="80" viewBox="0 0 70 80" fill="none" xmlns="http://www.w3.org/2000/svg">
<path d="M17.5 56H13.125V51.625V47.25V42.875V38.5H17.5V34.125H21.875V29.75V25.375V21H17.5H13.125H8.75H4.375V16.625H8.75H13.125H17.5H21.875H26.25H30.625V21V25.375V29.75V34.125H26.25V38.5H21.875V42.875V47.25V51.625V56H17.5ZM61.25 56H56.875V51.625H52.5V47.25H48.125V51.625V56H43.75H39.375V51.625V47.25V42.875V38.5V34.125V29.75V25.375V21V16.625H43.75H48.125V21V25.375V29.75V34.125H52.5V29.75H56.875V25.375H61.25H65.625V29.75H61.25V34.125H56.875V38.5H52.5V42.875H56.875V47.25H61.25V51.625H65.625V56H61.25Z" fill="url(#paint0_linear)"/>
<path d="M3.75 63.0625V61.5H5.3125V63.0625H3.75ZM10 74H8.4375H6.875H5.3125V72.4375H6.875H8.4375H10V70.875V69.3125V67.75H8.4375V66.1875H10V64.625V63.0625V61.5H8.4375H6.875H5.3125V59.9375H6.875H8.4375H10H11.5625V61.5H13.125V63.0625V64.625V66.1875H11.5625V67.75H13.125V69.3125V70.875V72.4375H11.5625V74H10ZM5.3125 72.4375H3.75V70.875H5.3125V72.4375ZM16.25 66.1875V64.625H17.8125V66.1875H16.25ZM24.0625 74H22.5H20.9375H19.375H17.8125V72.4375H16.25V70.875V69.3125H17.8125V67.75H19.375H20.9375H22.5V66.1875V64.625H20.9375H19.375H17.8125V63.0625H19.375H20.9375H22.5H24.0625V64.625H25.625V66.1875V67.75V69.3125V70.875V72.4375V74H24.0625ZM20.9375 72.4375H22.5V70.875V69.3125H20.9375H19.375V70.875V72.4375H20.9375ZM39.6875 77.125H38.125V75.5625V74H36.5625H35H33.4375H31.875V75.5625V77.125H30.3125H28.75V75.5625V74V72.4375H30.3125V70.875V69.3125V67.75V66.1875H31.875V64.625H33.4375V63.0625H35H36.5625H38.125H39.6875V64.625V66.1875V67.75V69.3125V70.875V72.4375H41.25V74V75.5625V77.125H39.6875ZM35 72.4375H36.5625V70.875V69.3125V67.75V66.1875V64.625H35H33.4375V66.1875V67.75V69.3125V70.875V72.4375H35ZM44.375 66.1875V64.625H45.9375V66.1875H44.375ZM52.1875 74H50.625H49.0625H47.5H45.9375V72.4375H44.375V70.875V69.3125H45.9375V67.75H47.5H49.0625H50.625V66.1875V64.625H49.0625H47.5H45.9375V63.0625H47.5H49.0625H50.625H52.1875V64.625H53.75V66.1875V67.75V69.3125V70.875V72.4375V74H52.1875ZM49.0625 72.4375H50.625V70.875V69.3125H49.0625H47.5V70.875V72.4375H49.0625ZM64.6875 74H63.125V72.4375V70.875V69.3125H61.5625V70.875H60H58.4375V69.3125H56.875V67.75V66.1875V64.625V63.0625H58.4375H60V64.625V66.1875V67.75V69.3125H61.5625V67.75H63.125V66.1875V64.625V63.0625H64.6875H66.25V64.625V66.1875V67.75V69.3125V70.875V72.4375V74H64.6875Z" fill="url(#paint1_linear)"/>
<defs>
<linearGradient id="paint0_linear" x1="0" y1="0" x2="71.9714" y2="69.9722" gradientUnits="userSpaceOnUse">
<stop stop-color="#673AB7"/>
<stop offset="1" stop-color="#9C27B0"/>
</linearGradient>
<linearGradient id="paint1_linear" x1="2" y1="54" x2="19.7329" y2="99.0143" gradientUnits="userSpaceOnUse">
<stop stop-color="#673AB7"/>
<stop offset="1" stop-color="#9C27B0"/>
</linearGradient>
</defs>
</svg>
