<svg width="97" height="80" viewBox="0 0 97 80" fill="none" xmlns="http://www.w3.org/2000/svg">
<path d="M17.875 56H13.5V51.625V47.25V42.875V38.5V34.125V29.75V25.375H9.125V21H13.5V16.625H17.875H22.25V21V25.375V29.75V34.125V38.5V42.875V47.25V51.625V56H17.875ZM48.5 56H44.125H39.75H35.375V51.625H31V47.25V42.875V38.5V34.125V29.75V25.375V21H35.375V16.625H39.75H44.125H48.5H52.875V21H57.25V25.375V29.75V34.125V38.5V42.875V47.25V51.625H52.875V56H48.5ZM44.125 51.625H48.5V47.25V42.875V38.5V34.125H44.125V29.75H48.5V25.375V21H44.125H39.75V25.375V29.75V34.125H44.125V38.5H39.75V42.875V47.25V51.625H44.125ZM87.875 56H83.5V51.625H79.125V47.25H74.75V51.625V56H70.375H66V51.625V47.25V42.875V38.5V34.125V29.75V25.375V21V16.625H70.375H74.75V21V25.375V29.75V34.125H79.125V29.75H83.5V25.375H87.875H92.25V29.75H87.875V34.125H83.5V38.5H79.125V42.875H83.5V47.25H87.875V51.625H92.25V56H87.875Z" fill="url(#paint0_linear)"/>
<path d="M16.125 74H14.5625V72.4375V70.875V69.3125V67.75V66.1875V64.625V63.0625V61.5V59.9375H16.125H17.6875H19.25H20.8125H22.375V61.5H23.9375V63.0625V64.625V66.1875H22.375V67.75H20.8125H19.25H17.6875V69.3125V70.875V72.4375V74H16.125ZM19.25 66.1875H20.8125V64.625V63.0625V61.5H19.25H17.6875V63.0625V64.625V66.1875H19.25ZM33.3125 78.6875H31.75H30.1875H28.625V77.125H30.1875H31.75H33.3125V75.5625V74H31.75H30.1875H28.625V72.4375H27.0625V70.875V69.3125V67.75V66.1875V64.625V63.0625H28.625H30.1875V64.625V66.1875V67.75V69.3125V70.875V72.4375H31.75H33.3125V70.875V69.3125V67.75V66.1875V64.625V63.0625H34.875H36.4375V64.625V66.1875V67.75V69.3125V70.875V72.4375V74V75.5625V77.125H34.875V78.6875H33.3125ZM28.625 77.125H27.0625V75.5625H28.625V77.125ZM45.8125 74H44.25H42.6875H41.125V72.4375H39.5625V70.875V69.3125V67.75V66.1875V64.625V63.0625V61.5V59.9375H41.125H42.6875V58.375H44.25H45.8125H47.375H48.9375V59.9375H47.375V61.5H45.8125H44.25H42.6875H41.125V63.0625H42.6875H44.25H45.8125H47.375V64.625H48.9375V66.1875V67.75V69.3125V70.875V72.4375H47.375V74H45.8125ZM44.25 72.4375H45.8125V70.875V69.3125V67.75V66.1875V64.625H44.25H42.6875V66.1875V67.75V69.3125V70.875V72.4375H44.25ZM59.875 74H58.3125V72.4375V70.875V69.3125V67.75V66.1875V64.625H56.75H55.1875V66.1875V67.75V69.3125V70.875V72.4375V74H53.625H52.0625V72.4375V70.875V69.3125V67.75V66.1875H53.625V64.625H55.1875V63.0625H56.75H58.3125H59.875H61.4375V64.625V66.1875V67.75V69.3125V70.875V72.4375V74H59.875ZM70.8125 72.4375H72.375V74H70.8125H69.25H67.6875H66.125V72.4375H64.5625V70.875V69.3125V67.75V66.1875V64.625H66.125V63.0625H67.6875H69.25H70.8125H72.375V64.625H73.9375V66.1875V67.75V69.3125H72.375H70.8125H69.25H67.6875V70.875V72.4375H69.25H70.8125ZM72.375 72.4375V70.875H73.9375V72.4375H72.375ZM69.25 67.75H70.8125V66.1875V64.625H69.25H67.6875V66.1875V67.75H69.25ZM84.875 74H83.3125H81.75H80.1875H78.625V72.4375H77.0625V70.875V69.3125V67.75V66.1875V64.625V63.0625H78.625H80.1875V64.625V66.1875V67.75V69.3125V70.875V72.4375H81.75H83.3125V70.875V69.3125V67.75V66.1875V64.625V63.0625H84.875H86.4375V64.625V66.1875V67.75V69.3125V70.875V72.4375V74H84.875ZM81.75 59.9375H83.3125V61.5H81.75H80.1875V59.9375H81.75ZM83.3125 59.9375V58.375H84.875V59.9375H83.3125ZM80.1875 59.9375H78.625V58.375H80.1875V59.9375Z" fill="url(#paint1_linear)"/>
<defs>
<linearGradient id="paint0_linear" x1="0" y1="0" x2="68.9163" y2="92.8456" gradientUnits="userSpaceOnUse">
<stop stop-color="#673AB7"/>
<stop offset="1" stop-color="#9C27B0"/>
</linearGradient>
<linearGradient id="paint1_linear" x1="13" y1="54" x2="29.0927" y2="100.421" gradientUnits="userSpaceOnUse">
<stop stop-color="#673AB7"/>
<stop offset="1" stop-color="#9C27B0"/>
</linearGradient>
</defs>
</svg>
