<svg width="88" height="70" viewBox="0 0 88 70" fill="none" xmlns="http://www.w3.org/2000/svg">
<path d="M17.2812 36H14.4688V33.1875V30.375V27.5625V24.75H11.6562H8.84375V27.5625V30.375V33.1875V36H6.03125H3.21875V33.1875V30.375V27.5625V24.75V21.9375V19.125V16.3125V13.5H6.03125V10.6875H8.84375H11.6562H14.4688H17.2812V13.5H20.0938V16.3125V19.125V21.9375V24.75V27.5625V30.375V33.1875V36H17.2812ZM11.6562 21.9375H14.4688V19.125V16.3125V13.5H11.6562H8.84375V16.3125V19.125V21.9375H11.6562ZM48.2188 36H45.4062V33.1875V30.375V27.5625V24.75V21.9375V19.125H42.5938H39.7812V16.3125H42.5938H45.4062H48.2188H51.0312H53.8438H56.6562V19.125H53.8438H51.0312V21.9375V24.75V27.5625V30.375V33.1875V36H48.2188ZM81.9688 36H79.1562V33.1875V30.375V27.5625V24.75V21.9375V19.125V16.3125H81.9688H84.7812V19.125V21.9375V24.75V27.5625V30.375V33.1875V36H81.9688ZM70.7188 36H67.9062H65.0938H62.2812V33.1875V30.375V27.5625V24.75V21.9375V19.125V16.3125H65.0938H67.9062V19.125V21.9375V24.75H70.7188H73.5312V27.5625H76.3438V30.375V33.1875H73.5312V36H70.7188ZM70.7188 33.1875V30.375V27.5625H67.9062V30.375V33.1875H70.7188Z" fill="url(#paint0_linear)"/>
<path d="M9 54.25V52.5H10.75V54.25H9ZM7.25 61.25H9V63H7.25H5.5H3.75V61.25H2V59.5V57.75V56V54.25V52.5H3.75V50.75H5.5H7.25H9V52.5H7.25H5.5V54.25V56V57.75V59.5V61.25H7.25ZM9 61.25V59.5H10.75V61.25H9ZM23 63H21.25V61.25V59.5V57.75V56V54.25V52.5H19.5H17.75V54.25V56V57.75V59.5V61.25V63H16H14.25V61.25V59.5V57.75V56V54.25V52.5V50.75H16H17.75H19.5H21.25H23H24.75V52.5V54.25V56V57.75V59.5V61.25V63H23ZM37 63H35.25H33.5H31.75H30V61.25H28.25V59.5V57.75V56V54.25V52.5V50.75H30H31.75V52.5V54.25V56V57.75V59.5V61.25H33.5H35.25V59.5V57.75V56V54.25V52.5V50.75H37H38.75V52.5V54.25V56V57.75V59.5V61.25V63H37ZM58 63H56.25H54.5H52.75H51H49.25H47.5H45.75H44H42.25V61.25V59.5V57.75V56V54.25V52.5V50.75H44H45.75V52.5V54.25V56V57.75V59.5V61.25H47.5H49.25V59.5V57.75V56V54.25V52.5V50.75H51H52.75V52.5V54.25V56V57.75V59.5V61.25H54.5H56.25V59.5V57.75V56V54.25V52.5V50.75H58H59.75V52.5V54.25V56V57.75V59.5V61.25V63H58ZM68.5 63H66.75H65H63.25V61.25V59.5V57.75V56V54.25V52.5V50.75H65H66.75V52.5V54.25V56H68.5H70.25V57.75H72V59.5V61.25H70.25V63H68.5ZM68.5 61.25V59.5V57.75H66.75V59.5V61.25H68.5ZM75.5 50.75V49H77.25V50.75H75.5ZM80.75 63H79V61.25V59.5H80.75H82.5V61.25V63H80.75ZM80.75 57.75H79V56V54.25H80.75V52.5H82.5V50.75V49H80.75H79H77.25V47.25H79H80.75H82.5H84.25V49H86V50.75V52.5H84.25V54.25H82.5V56V57.75H80.75Z" fill="url(#paint1_linear)"/>
<defs>
<linearGradient id="paint0_linear" x1="0" y1="0" x2="37.7704" y2="72.2564" gradientUnits="userSpaceOnUse">
<stop stop-color="#673AB7"/>
<stop offset="1" stop-color="#9C27B0"/>
</linearGradient>
<linearGradient id="paint1_linear" x1="0" y1="41" x2="17.2412" y2="93.3182" gradientUnits="userSpaceOnUse">
<stop stop-color="#673AB7"/>
<stop offset="1" stop-color="#9C27B0"/>
</linearGradient>
</defs>
</svg>
