<svg width="97" height="72" viewBox="0 0 97 72" fill="none" xmlns="http://www.w3.org/2000/svg">
<path d="M22.0625 25.375V21H26.4375V25.375H22.0625ZM17.6875 56H13.3125H8.9375V51.625H13.3125H17.6875V47.25V42.875H13.3125V38.5H8.9375V34.125H4.5625V29.75V25.375V21H8.9375V16.625H13.3125H17.6875H22.0625V21H17.6875H13.3125V25.375V29.75H17.6875V34.125H22.0625V38.5H26.4375V42.875V47.25V51.625H22.0625V56H17.6875ZM8.9375 51.625H4.5625V47.25H8.9375V51.625Z" fill="url(#paint0_linear)"/>
<path d="M30.375 32V30.75V29.5V28.25V27V25.75V24.5V23.25V22V20.75H31.625V22H32.875V23.25H34.125V24.5H35.375V25.75H36.625V24.5H37.875V23.25H39.125V22H40.375V20.75H41.625H42.875V22V23.25V24.5V25.75V27V28.25V29.5V30.75V32H41.625H40.375V30.75V29.5V28.25V27V25.75H39.125V27H37.875V28.25H36.625V29.5H35.375V28.25H34.125V27H32.875V25.75H31.625V27V28.25V29.5V30.75V32H30.375ZM51.625 32H50.375H49.125H47.875H46.625V30.75H45.375V29.5V28.25V27V25.75V24.5V23.25H46.625H47.875V24.5V25.75V27V28.25V29.5V30.75H49.125H50.375V29.5V28.25V27V25.75V24.5V23.25H51.625H52.875V24.5V25.75V27V28.25V29.5V30.75V32H51.625ZM60.375 25.75V24.5H61.625V25.75H60.375ZM59.125 30.75H60.375V32H59.125H57.875H56.625V30.75H55.375V29.5V28.25V27V25.75V24.5H56.625V23.25H57.875H59.125H60.375V24.5H59.125H57.875V25.75V27V28.25V29.5V30.75H59.125ZM60.375 30.75V29.5H61.625V30.75H60.375ZM67.875 32H66.625V30.75V29.5V28.25V27V25.75V24.5H65.375H64.125V23.25H65.375H66.625H67.875H69.125H70.375H71.625V24.5H70.375H69.125V25.75V27V28.25V29.5V30.75V32H67.875ZM79.125 30.75H80.375V32H79.125H77.875H76.625H75.375V30.75H74.125V29.5V28.25V27V25.75V24.5H75.375V23.25H76.625H77.875H79.125H80.375V24.5H81.625V25.75V27V28.25H80.375H79.125H77.875H76.625V29.5V30.75H77.875H79.125ZM80.375 30.75V29.5H81.625V30.75H80.375ZM77.875 27H79.125V25.75V24.5H77.875H76.625V25.75V27H77.875ZM85.375 34.5H84.125V33.25V32V30.75V29.5V28.25V27V25.75V24.5V23.25H85.375H86.625H87.875H89.125H90.375V24.5H91.625V25.75V27V28.25V29.5V30.75H90.375V32H89.125H87.875H86.625V33.25V34.5H85.375ZM87.875 30.75H89.125V29.5V28.25V27V25.75V24.5H87.875H86.625V25.75V27V28.25V29.5V30.75H87.875Z" fill="url(#paint1_linear)"/>
<path d="M36.75 53H35.5V51.75H34.25V50.5H33V51.75V53H31.75H30.5V51.75V50.5V49.25V48V46.75V45.5V44.25H31.75H33V45.5V46.75H34.25V45.5H35.5V44.25H36.75H38V45.5H36.75V46.75H35.5V48H34.25V49.25H35.5V50.5H36.75V51.75H38V53H36.75ZM45.5 53H44.25H43H41.75V51.75H40.5V50.5V49.25V48V46.75V45.5H41.75V44.25H43H44.25H45.5H46.75V45.5H48V46.75V48V49.25V50.5V51.75H46.75V53H45.5ZM44.25 51.75H45.5V50.5V49.25V48V46.75V45.5H44.25H43V46.75V48V49.25V50.5V51.75H44.25ZM51.75 55.5H50.5V54.25V53V51.75V50.5V49.25V48V46.75V45.5V44.25H51.75H53H54.25H55.5H56.75V45.5H58V46.75V48V49.25V50.5V51.75H56.75V53H55.5H54.25H53V54.25V55.5H51.75ZM54.25 51.75H55.5V50.5V49.25V48V46.75V45.5H54.25H53V46.75V48V49.25V50.5V51.75H54.25ZM65.5 53H64.25H63H61.75V51.75H60.5V50.5V49.25V48V46.75V45.5H61.75V44.25H63H64.25H65.5H66.75V45.5H68V46.75V48V49.25V50.5V51.75H66.75V53H65.5ZM64.25 51.75H65.5V50.5V49.25V48V46.75V45.5H64.25H63V46.75V48V49.25V50.5V51.75H64.25ZM75.5 46.75V45.5H76.75V46.75H75.5ZM74.25 51.75H75.5V53H74.25H73H71.75V51.75H70.5V50.5V49.25V48V46.75V45.5H71.75V44.25H73H74.25H75.5V45.5H74.25H73V46.75V48V49.25V50.5V51.75H74.25ZM75.5 51.75V50.5H76.75V51.75H75.5ZM83 53H81.75V51.75V50.5V49.25V48V46.75V45.5H80.5H79.25V44.25H80.5H81.75H83H84.25H85.5H86.75V45.5H85.5H84.25V46.75V48V49.25V50.5V51.75V53H83ZM93 53H91.75H90.5H89.25V51.75V50.5V49.25V48V46.75V45.5V44.25H90.5H91.75V45.5V46.75V48H93H94.25V49.25H95.5V50.5V51.75H94.25V53H93ZM93 51.75V50.5V49.25H91.75V50.5V51.75H93Z" fill="url(#paint2_linear)"/>
<defs>
<linearGradient id="paint0_linear" x1="0" y1="0" x2="52.304" y2="22.5198" gradientUnits="userSpaceOnUse">
<stop stop-color="#673AB7"/>
<stop offset="1" stop-color="#9C27B0"/>
</linearGradient>
<linearGradient id="paint1_linear" x1="29" y1="16" x2="41.4417" y2="53.9176" gradientUnits="userSpaceOnUse">
<stop stop-color="#673AB7"/>
<stop offset="1" stop-color="#9C27B0"/>
</linearGradient>
<linearGradient id="paint2_linear" x1="29" y1="37" x2="40.8413" y2="75.3431" gradientUnits="userSpaceOnUse">
<stop stop-color="#673AB7"/>
<stop offset="1" stop-color="#9C27B0"/>
</linearGradient>
</defs>
</svg>
