<svg width="72" height="81" viewBox="0 0 72 81" fill="none" xmlns="http://www.w3.org/2000/svg">
<path d="M9.4375 40H6.3125V36.875V33.75V30.625V27.5V24.375V21.25V18.125V15H3.1875H0.0625V11.875H3.1875H6.3125H9.4375H12.5625H15.6875H18.8125V15H15.6875H12.5625V18.125V21.25V24.375V27.5V30.625V33.75V36.875V40H9.4375ZM37.5625 40H34.4375H31.3125H28.1875V36.875H25.0625V33.75V30.625V27.5V24.375V21.25V18.125V15H28.1875V11.875H31.3125H34.4375H37.5625H40.6875V15H43.8125V18.125V21.25V24.375V27.5V30.625V33.75V36.875H40.6875V40H37.5625ZM34.4375 36.875H37.5625V33.75V30.625V27.5V24.375V21.25V18.125V15H34.4375H31.3125V18.125V21.25V24.375V27.5V30.625V33.75V36.875H34.4375ZM65.6875 40H62.5625V36.875V33.75V30.625V27.5V24.375V21.25V18.125V15H59.4375H56.3125V18.125V21.25V24.375V27.5V30.625V33.75V36.875V40H53.1875H50.0625V36.875V33.75V30.625V27.5V24.375V21.25V18.125V15V11.875H53.1875H56.3125H59.4375H62.5625H65.6875H68.8125V15V18.125V21.25V24.375V27.5V30.625V33.75V36.875V40H65.6875Z" fill="url(#paint0_linear)"/>
<path d="M15.6875 70H12.5625H9.4375H6.3125V66.875H9.4375H12.5625H15.6875V63.75V60.625V57.5V54.375H12.5625H9.4375H6.3125V51.25H9.4375V48.125H12.5625V45H9.4375H6.3125H3.1875V41.875H6.3125H9.4375H12.5625H15.6875H18.8125H21.9375V45H18.8125V48.125H15.6875V51.25H18.8125V54.375H21.9375V57.5V60.625V63.75V66.875H18.8125V70H15.6875ZM6.3125 66.875H3.1875V63.75H6.3125V66.875ZM40.6875 57.5H43.8125V60.625H40.6875H37.5625H34.4375H31.3125H28.1875V57.5H31.3125H34.4375H37.5625H40.6875ZM65.6875 70H62.5625V66.875V63.75V60.625H59.4375H56.3125V63.75V66.875V70H53.1875H50.0625V66.875V63.75V60.625H53.1875V57.5H50.0625V54.375V51.25V48.125H53.1875H56.3125V51.25V54.375V57.5H59.4375H62.5625V54.375V51.25V48.125H65.6875H68.8125V51.25V54.375V57.5H65.6875V60.625H68.8125V63.75V66.875V70H65.6875Z" fill="url(#paint1_linear)"/>
<path d="M7.8125 79H7.125V78.3125V77.625V76.9375V76.25V75.5625H6.4375V76.25V76.9375H5.75V77.625V78.3125H5.0625V79H4.375H3.6875V78.3125V77.625V76.9375V76.25V75.5625V74.875V74.1875V73.5V72.8125H4.375H5.0625V73.5V74.1875V74.875V75.5625V76.25V76.9375H5.75V76.25V75.5625H6.4375V74.875V74.1875H7.125V73.5V72.8125H7.8125H8.5V73.5V74.1875V74.875V75.5625V76.25V76.9375V77.625V78.3125V79H7.8125ZM12.625 75.5625V74.875H13.3125V75.5625H12.625ZM11.9375 78.3125H12.625V79H11.9375H11.25H10.5625V78.3125H9.875V77.625V76.9375V76.25V75.5625V74.875H10.5625V74.1875H11.25H11.9375H12.625V74.875H11.9375H11.25V75.5625V76.25V76.9375V77.625V78.3125H11.9375ZM12.625 78.3125V77.625H13.3125V78.3125H12.625ZM18.125 79H17.4375V78.3125V77.625V76.9375V76.25V75.5625V74.875H16.75H16.0625V75.5625V76.25V76.9375V77.625V78.3125V79H15.375H14.6875V78.3125V77.625V76.9375V76.25V75.5625V74.875V74.1875H15.375H16.0625H16.75H17.4375H18.125H18.8125V74.875V75.5625V76.25V76.9375V77.625V78.3125V79H18.125ZM22.9375 79H22.25H21.5625H20.875V78.3125H20.1875V77.625V76.9375V76.25V75.5625V74.875H20.875V74.1875H21.5625H22.25H22.9375H23.625V74.875H24.3125V75.5625V76.25V76.9375V77.625V78.3125H23.625V79H22.9375ZM22.25 78.3125H22.9375V77.625V76.9375V76.25V75.5625V74.875H22.25H21.5625V75.5625V76.25V76.9375V77.625V78.3125H22.25ZM29.125 79H28.4375V78.3125V77.625V76.9375V76.25V75.5625V74.875H27.75H27.0625V75.5625V76.25V76.9375V77.625V78.3125V79H26.375H25.6875V78.3125V77.625V76.9375V76.25V75.5625H26.375V74.875H27.0625V74.1875H27.75H28.4375H29.125H29.8125V74.875V75.5625V76.25V76.9375V77.625V78.3125V79H29.125ZM34.625 79H33.9375V78.3125V77.625V76.9375H33.25H32.5625V77.625V78.3125V79H31.875H31.1875V78.3125V77.625V76.9375V76.25V75.5625V74.875V74.1875H31.875H32.5625V74.875V75.5625V76.25H33.25H33.9375V75.5625V74.875V74.1875H34.625H35.3125V74.875V75.5625V76.25V76.9375V77.625V78.3125V79H34.625ZM40.125 79H39.4375H38.75H38.0625H37.375V78.3125H36.6875V77.625V76.9375V76.25V75.5625V74.875V74.1875H37.375H38.0625V74.875V75.5625V76.25V76.9375V77.625V78.3125H38.75H39.4375V77.625V76.9375V76.25V75.5625V74.875V74.1875H40.125H40.8125V74.875V75.5625V76.25V76.9375V77.625V78.3125V79H40.125ZM44.25 79H43.5625V78.3125V77.625V76.9375V76.25V75.5625V74.875H42.875H42.1875V74.1875H42.875H43.5625H44.25H44.9375H45.625H46.3125V74.875H45.625H44.9375V75.5625V76.25V76.9375V77.625V78.3125V79H44.25ZM50.4375 78.3125H51.125V79H50.4375H49.75H49.0625H48.375V78.3125H47.6875V77.625V76.9375V76.25V75.5625V74.875H48.375V74.1875H49.0625H49.75H50.4375H51.125V74.875H51.8125V75.5625V76.25V76.9375H51.125H50.4375H49.75H49.0625V77.625V78.3125H49.75H50.4375ZM51.125 78.3125V77.625H51.8125V78.3125H51.125ZM49.75 76.25H50.4375V75.5625V74.875H49.75H49.0625V75.5625V76.25H49.75ZM56.625 79H55.9375V78.3125V77.625V76.9375V76.25V75.5625V74.875H55.25H54.5625V75.5625V76.25V76.9375V77.625V78.3125V79H53.875H53.1875V78.3125V77.625V76.9375V76.25V75.5625H53.875V74.875H54.5625V74.1875H55.25H55.9375H56.625H57.3125V74.875V75.5625V76.25V76.9375V77.625V78.3125V79H56.625ZM61.4375 78.3125H62.125V79H61.4375H60.75H60.0625H59.375V78.3125H58.6875V77.625V76.9375V76.25V75.5625V74.875H59.375V74.1875H60.0625H60.75H61.4375H62.125V74.875H62.8125V75.5625V76.25V76.9375H62.125H61.4375H60.75H60.0625V77.625V78.3125H60.75H61.4375ZM62.125 78.3125V77.625H62.8125V78.3125H62.125ZM60.75 76.25H61.4375V75.5625V74.875H60.75H60.0625V75.5625V76.25H60.75ZM67.625 79H66.9375H66.25H65.5625H64.875V78.3125H64.1875V77.625V76.9375V76.25V75.5625V74.875V74.1875H64.875H65.5625V74.875V75.5625V76.25V76.9375V77.625V78.3125H66.25H66.9375V77.625V76.9375V76.25V75.5625V74.875V74.1875H67.625H68.3125V74.875V75.5625V76.25V76.9375V77.625V78.3125V79H67.625ZM66.25 72.8125H66.9375V73.5H66.25H65.5625V72.8125H66.25ZM66.9375 72.8125V72.125H67.625V72.8125H66.9375ZM65.5625 72.8125H64.875V72.125H65.5625V72.8125Z" fill="url(#paint2_linear)"/>
<defs>
<linearGradient id="paint0_linear" x1="0" y1="0" x2="48.111" y2="67.9214" gradientUnits="userSpaceOnUse">
<stop stop-color="#673AB7"/>
<stop offset="1" stop-color="#9C27B0"/>
</linearGradient>
<linearGradient id="paint1_linear" x1="0" y1="30" x2="48.111" y2="97.9214" gradientUnits="userSpaceOnUse">
<stop stop-color="#673AB7"/>
<stop offset="1" stop-color="#9C27B0"/>
</linearGradient>
<linearGradient id="paint2_linear" x1="3" y1="70" x2="6.56757" y2="91.4054" gradientUnits="userSpaceOnUse">
<stop stop-color="#673AB7"/>
<stop offset="1" stop-color="#9C27B0"/>
</linearGradient>
</defs>
</svg>
