<svg width="64" height="12" viewBox="0 0 64 12" fill="none" xmlns="http://www.w3.org/2000/svg">
<path d="M4.695 11.18C3.865 11.18 3.06 11.07 2.28 10.85C1.51 10.62 0.89 10.325 0.42 9.965L1.245 8.135C1.695 8.465 2.23 8.73 2.85 8.93C3.47 9.13 4.09 9.23 4.71 9.23C5.4 9.23 5.91 9.13 6.24 8.93C6.57 8.72 6.735 8.445 6.735 8.105C6.735 7.855 6.635 7.65 6.435 7.49C6.245 7.32 5.995 7.185 5.685 7.085C5.385 6.985 4.975 6.875 4.455 6.755C3.655 6.565 3 6.375 2.49 6.185C1.98 5.995 1.54 5.69 1.17 5.27C0.81 4.85 0.63 4.29 0.63 3.59C0.63 2.98 0.795 2.43 1.125 1.94C1.455 1.44 1.95 1.045 2.61 0.755C3.28 0.465 4.095 0.32 5.055 0.32C5.725 0.32 6.38 0.4 7.02 0.559999C7.66 0.72 8.22 0.95 8.7 1.25L7.95 3.095C6.98 2.545 6.01 2.27 5.04 2.27C4.36 2.27 3.855 2.38 3.525 2.6C3.205 2.82 3.045 3.11 3.045 3.47C3.045 3.83 3.23 4.1 3.6 4.28C3.98 4.45 4.555 4.62 5.325 4.79C6.125 4.98 6.78 5.17 7.29 5.36C7.8 5.55 8.235 5.85 8.595 6.26C8.965 6.67 9.15 7.225 9.15 7.925C9.15 8.525 8.98 9.075 8.64 9.575C8.31 10.065 7.81 10.455 7.14 10.745C6.47 11.035 5.655 11.18 4.695 11.18ZM12.8389 2.48H9.47895V0.499999H18.6289V2.48H15.2689V11H12.8389V2.48ZM24.4256 11.18C22.9256 11.18 21.7556 10.765 20.9156 9.935C20.0856 9.105 19.6706 7.92 19.6706 6.38V0.499999H22.1006V6.29C22.1006 8.17 22.8806 9.11 24.4406 9.11C25.2006 9.11 25.7806 8.885 26.1806 8.435C26.5806 7.975 26.7806 7.26 26.7806 6.29V0.499999H29.1806V6.38C29.1806 7.92 28.7606 9.105 27.9206 9.935C27.0906 10.765 25.9256 11.18 24.4256 11.18ZM31.5819 0.499999H36.3519C37.4919 0.499999 38.4969 0.719999 39.3669 1.16C40.2469 1.59 40.9269 2.2 41.4069 2.99C41.8969 3.78 42.1419 4.7 42.1419 5.75C42.1419 6.8 41.8969 7.72 41.4069 8.51C40.9269 9.3 40.2469 9.915 39.3669 10.355C38.4969 10.785 37.4919 11 36.3519 11H31.5819V0.499999ZM36.2319 9.005C37.2819 9.005 38.1169 8.715 38.7369 8.135C39.3669 7.545 39.6819 6.75 39.6819 5.75C39.6819 4.75 39.3669 3.96 38.7369 3.38C38.1169 2.79 37.2819 2.495 36.2319 2.495H34.0119V9.005H36.2319ZM52.1045 9.05V11H43.9745V0.499999H51.9095V2.45H46.3895V4.73H51.2645V6.62H46.3895V9.05H52.1045ZM60.728 11L58.703 8.075H58.583H56.468V11H54.038V0.499999H58.583C59.513 0.499999 60.318 0.654999 60.998 0.965C61.688 1.275 62.218 1.715 62.588 2.285C62.958 2.855 63.143 3.53 63.143 4.31C63.143 5.09 62.953 5.765 62.573 6.335C62.203 6.895 61.673 7.325 60.983 7.625L63.338 11H60.728ZM60.683 4.31C60.683 3.72 60.493 3.27 60.113 2.96C59.733 2.64 59.178 2.48 58.448 2.48H56.468V6.14H58.448C59.178 6.14 59.733 5.98 60.113 5.66C60.493 5.34 60.683 4.89 60.683 4.31Z" fill="#FEFEFE"/>
</svg>
