<?xml version="1.0" encoding="iso-8859-1"?>
<!-- Generator: Adobe Illustrator 19.0.0, SVG Export Plug-In . SVG Version: 6.00 Build 0)  -->
<svg version="1.1" id="Capa_1" xmlns="http://www.w3.org/2000/svg" xmlns:xlink="http://www.w3.org/1999/xlink" x="0px" y="0px"
	 viewBox="0 0 496 496" style="enable-background:new 0 0 496 496;" xml:space="preserve">
<g>
	<g>
		<g>
			<path d="M442.76,250.376c4.336-7.32,9.104-14.392,14.448-21.072C466.744,217.376,472,202.392,472,187.12
				c0-19.624-7.64-38.08-21.52-51.952c-9.416-9.424-21.216-16.104-34.136-19.32l-9.616-2.408
				c-16.32-47.32-53.152-85.032-99.88-102.592l-0.504-0.504l-0.232,0.232C287.968,3.856,268.448,0,248,0
				s-39.968,3.856-58.112,10.576l-0.232-0.232l-0.504,0.504c-46.728,17.56-83.56,55.272-99.88,102.592l-9.616,2.4
				c-12.912,3.224-24.72,9.904-34.136,19.328C31.64,149.04,24,167.496,24,187.12c0,15.272,5.256,30.256,14.8,42.184
				c5.344,6.68,10.112,13.752,14.448,21.072l-3.648,6.072C38.088,275.632,32,297.608,32,320c0,17.648,14.352,32,32,32
				c6.288,0,12.128-1.888,17.08-5.032c5.96,52.192,37.264,97.152,84.432,120.736l33.448,16.72C214.096,491.992,231.056,496,248,496
				c16.944,0,33.904-4.008,49.048-11.576l33.448-16.72c47.168-23.584,78.464-68.544,84.432-120.736
				C419.872,350.112,425.704,352,432,352c17.648,0,32-14.352,32-32c0-22.392-6.088-44.368-17.6-63.552L442.76,250.376z M80,320
				c0,8.824-7.184,16-16,16c-8.824,0-16-7.176-16-16c0-18.6,4.872-36.84,14.024-52.992c1.84,4.008,3.584,8.072,5.136,12.216
				L80,313.456V320z M80,168v100.496c-7.208-17.688-16.76-34.256-28.704-49.192C44.008,210.2,40,198.776,40,187.12
				c0-15.352,5.976-29.784,16.832-40.64c7.368-7.368,16.6-12.592,26.696-15.12l0.656-0.168C81.528,143.056,80,155.344,80,168z
				 M186.032,29.344l11.296,11.296l11.312-11.312l-6.296-6.296C216.76,18.48,232.096,16,248,16s31.232,2.48,45.656,7.032L248,68.688
				l-29.152-29.152l-11.312,11.312L248,91.312l61.968-61.968c52.064,23.368,88.624,75.128,89.872,135.504l-12.272,12.272
				c-14.752,14.752-34.376,22.88-55.24,22.88c-12.072,0-24.152-2.848-34.928-8.248l-5.192-2.6
				c2.776-6.736,6.888-12.928,12.192-18.24l45.256-45.256l-11.312-11.312L293.088,159.6C279.48,173.192,272,191.272,272,210.504
				v46.864c0,13.808,4.688,27.368,13.056,38.256L248,332.688l-37.056-37.056C219.312,284.744,224,271.176,224,257.376v-46.864
				c0-19.232-7.488-37.312-21.088-50.904l-45.256-45.256l-11.312,11.312L191.6,170.92c5.312,5.312,9.416,11.504,12.192,18.24
				l-5.192,2.6c-10.784,5.392-22.856,8.24-34.928,8.24c-20.864,0-40.488-8.128-55.24-22.88L96.16,164.848
				C97.408,104.472,133.96,52.712,186.032,29.344z M301.656,290.344c-4.976-4.976-8.68-11.056-10.984-17.64
				c1.744-0.4,3.52-0.704,5.328-0.704c13.232,0,24,10.768,24,24s-10.768,24-24,24c-3.6,0-7.08-0.896-10.272-2.416L307.312,296
				L301.656,290.344z M296,256c-2.704,0-5.368,0.36-8,0.896v-46.384c0-1.824,0.096-3.64,0.264-5.432l1.976,0.984
				c5.384,2.696,11.072,4.728,16.88,6.344c-1.928,3.448-3.12,7.368-3.12,11.592c0,13.232,10.768,24,24,24s24-10.768,24-24
				c0-3.448-0.76-6.712-2.072-9.672c6.216-1.168,12.264-2.936,18.072-5.312v14.016c0,8.68-3.52,17.168-9.656,23.312
				C352.2,252.48,343.712,256,335.032,256H296z M320,224c0-4.416,3.584-8,8-8c4.416,0,8,3.584,8,8s-3.584,8-8,8
				C323.584,232,320,228.416,320,224z M168,248c13.232,0,24-10.768,24-24c0-4.224-1.192-8.144-3.12-11.6
				c5.808-1.616,11.496-3.648,16.88-6.344l1.976-0.984c0.168,1.8,0.264,3.608,0.264,5.432v46.384c-2.632-0.528-5.296-0.888-8-0.888
				h-39.032c-8.68,0-17.168-3.52-23.312-9.656C131.52,240.2,128,231.712,128,223.032v-14.016c5.808,2.376,11.856,4.144,18.072,5.312
				C144.76,217.288,144,220.552,144,224C144,237.232,154.768,248,168,248z M160,224c0-4.416,3.584-8,8-8s8,3.584,8,8s-3.584,8-8,8
				S160,228.416,160,224z M200,272c1.808,0,3.584,0.304,5.328,0.696c-2.304,6.584-6.008,12.672-10.984,17.648L188.688,296
				l21.584,21.584C207.072,319.104,203.6,320,200,320c-13.232,0-24-10.768-24-24S186.768,272,200,272z M400,329.344
				c0,4.152-0.192,8.376-0.568,12.552c-4.384,48.176-32.832,89.856-76.096,111.496l-33.448,16.72
				c-25.856,12.936-57.92,12.936-83.784,0l-33.448-16.72c-43.264-21.632-71.712-63.312-76.096-111.488
				c-0.368-4.184-0.56-8.408-0.56-12.56V187.312l1.12,1.12c4.592,4.592,9.584,8.624,14.88,12.12v22.48
				c0,13.08,5.096,25.376,14.344,34.624c9.248,9.248,21.544,14.344,34.624,14.344h7.24c-5.08,6.704-8.208,14.96-8.208,24
				c0,22.056,17.944,40,40,40c7.88,0,15.472-2.424,21.968-6.72L248,355.312l26.024-26.024C280.528,333.576,288.12,336,296,336
				c22.056,0,40-17.944,40-40c0-9.04-3.128-17.296-8.208-24h7.24c13.08,0,25.376-5.096,34.624-14.344
				c9.248-9.248,14.344-21.544,14.344-34.624v-22.48c5.296-3.496,10.288-7.528,14.88-12.12l1.12-1.12V329.344z M411.808,131.2
				l0.664,0.168c10.096,2.512,19.328,7.744,26.696,15.112C450.024,157.336,456,171.768,456,187.12
				c0,11.656-4.008,23.088-11.296,32.184C432.76,234.24,423.208,250.808,416,268.496V168C416,155.344,414.472,143.064,411.808,131.2
				z M432,336c-8.824,0-16-7.176-16-16v-6.544l12.832-34.232c1.552-4.144,3.296-8.208,5.136-12.216
				C443.128,283.16,448,301.4,448,320C448,328.824,440.816,336,432,336z"/>
			<rect x="298.908" y="61.894" transform="matrix(0.7071 0.7071 -0.7071 0.7071 138.7398 -196.7833)" width="16" height="14.376"/>
			<polygon points="298.064,89.248 286.752,77.936 248,116.688 189.656,58.344 178.344,69.656 248,139.312 			"/>
			<path d="M336.968,346.744c3.144-3.16,4.984-5.376,5.288-5.744l-12.496-10c-0.296,0.376-30.208,37-81.76,37
				c-51.264,0-81.472-36.64-81.768-37.016L153.752,341c0.296,0.368,2.136,2.584,5.288,5.752
				c-4.432,17.408-11.712,33.832-21.688,48.816L126.64,411.64l26.592-5.32c8.928-1.784,17.128-5.632,24.184-10.936
				C188.296,403.136,211.768,416,248,416s59.704-12.864,70.592-20.616c7.056,5.304,15.256,9.144,24.184,10.936l26.592,5.32
				l-10.712-16.072C348.68,380.584,341.4,364.168,336.968,346.744z M160.912,386.928c4.68-9.16,8.504-18.728,11.496-28.6
				c2.84,2.144,6.016,4.312,9.472,6.48C177.704,374.432,170.256,382.304,160.912,386.928z M208,393.248
				c-8.264-3.008-14.56-6.488-18.952-9.344c2.72-3.528,4.992-7.408,6.88-11.496c3.8,1.768,7.784,3.448,12.072,4.92V393.248z
				 M240,399.752c-5.776-0.36-11.072-1.112-16-2.088v-16.088c5.08,1.008,10.408,1.72,16,2.08V399.752z M272,397.664
				c-4.928,0.984-10.224,1.736-16,2.088v-16.096c5.584-0.36,10.92-1.064,16-2.08V397.664z M288,393.248v-15.912
				c4.28-1.472,8.264-3.152,12.072-4.92c1.888,4.088,4.16,7.968,6.88,11.496C302.56,386.76,296.264,390.24,288,393.248z
				 M314.112,364.808c3.464-2.168,6.64-4.344,9.48-6.48c2.992,9.872,6.816,19.44,11.496,28.608
				C325.744,382.304,318.288,374.432,314.112,364.808z"/>
		</g>
	</g>
</g>
<g>
</g>
<g>
</g>
<g>
</g>
<g>
</g>
<g>
</g>
<g>
</g>
<g>
</g>
<g>
</g>
<g>
</g>
<g>
</g>
<g>
</g>
<g>
</g>
<g>
</g>
<g>
</g>
<g>
</g>
</svg>
