<svg height="480pt" viewBox="-32 0 480 480.001" width="480pt" xmlns="http://www.w3.org/2000/svg"><path d="m28.796875 124.078125 30.523437 61.648437c-6.210937-2.15625-12.957031-2.214843-19.203124-.160156-14.429688 4.828125-23.039063 19.613282-20.117188 34.546875l18.039062 98.855469c2.007813 9.886719 10.6875 17 20.777344 17.03125 1.75-.023438 3.492188-.265625 5.183594-.71875v8.71875c0 1.472656.40625 2.917969 1.175781 4.175781l68.605469 112.039063c14.777344 20.753906 43.375 26 64.554688 11.839844 5.894531-3.871094 13.535156-3.847657 19.40625.058593 21.347656 14.203125 50.132812 8.71875 64.761718-12.335937l68.320313-111.601563c.769531-1.257812 1.175781-2.703125 1.175781-4.175781v-8.71875c1.691406.453125 3.429688.695312 5.183594.71875 10.132812-.042969 18.835937-7.226562 20.800781-17.167969l18.015625-98.585937c2.957031-14.96875-5.667969-29.804688-20.136719-34.644532-6.242187-2.0625-12.992187-2.003906-19.199219.160157l30.535157-61.683594c8.394531-16.96875 14.347656-35.042969 17.6875-53.679687l10.984375-61.015626c.410156-2.324218-.230469-4.714843-1.75-6.523437-1.519532-1.8125-3.757813-2.85546875-6.121094-2.859375-22.515625.00390625-42.785156 13.636719-51.273438 34.488281l-11.777343 28.550781c-5.285157 12.804688-13.507813 24.1875-24 33.234376l-8.445313 3.710937c-21.71875-20.96875-50.148437-33.585937-80.265625-35.632813-3.0625-.261718-6.078125-.351562-9.199219-.351562h-30.082031c-3.117187 0-6.132812.089844-9.007812.335938-30.171875 2.03125-58.660157 14.664062-80.421875 35.664062l-8.449219-3.710938c-10.492187-9.046874-18.710937-20.429687-24-33.234374l-11.808594-28.566407c-8.488281-20.851562-28.757812-34.48437475-51.269531-34.488281-2.371094 0-4.617188 1.050781-6.136719 2.867188-1.519531 1.820312-2.15625 4.21875-1.738281 6.546874l10.984375 60.984376c3.339844 18.636718 9.296875 36.710937 17.6875 53.679687zm90.082031-13.382813c-.160156-.84375-.457031-1.652343-.878906-2.398437 14.9375-13.171875 33.109375-22.128906 52.65625-25.953125-13.96875 26.851562-32.933594 50.789062-55.875 70.527344 4.964844-13.472656 6.378906-27.996094 4.097656-42.175782zm-60.0625 209.304688c-2.429687.011719-4.539062-1.667969-5.066406-4.039062l-18.046875-98.855469c-1.402344-7.0625 2.660156-14.066407 9.488281-16.351563 4.355469-1.453125 9.144532-.726562 12.871094 1.960938 3.726562 2.683594 5.9375 6.996094 5.9375 11.589844v100.511718c-.003906 2.859375-2.324219 5.179688-5.183594 5.183594zm242.398438-167.160156c-22.945313-19.746094-41.910156-43.6875-55.878906-70.542969 19.546874 3.828125 37.722656 12.789063 52.664062 25.96875-.425781.746094-.722656 1.554687-.882812 2.398437-2.277344 14.175782-.867188 28.703126 4.097656 42.175782zm69.601562 47.914062c6.863282 2.3125 10.925782 9.386719 9.460938 16.484375l-18 98.59375c-.527344 2.609375-2.945313 4.394531-5.597656 4.132813-2.648438-.261719-4.671876-2.484375-4.679688-5.148438v-100.511718c0-4.59375 2.207031-8.90625 5.933594-11.589844 3.726562-2.6875 8.515625-3.414063 12.875-1.960938zm-42.402344-90.296875c.691407-.308593 1.335938-.707031 1.914063-1.191406 12.894531-10.804687 22.980469-24.570313 29.398437-40.121094l11.792969-28.550781c4.714844-11.558594 14.605469-20.21875 26.6875-23.363281l-9.0625 50.402343c-3.089843 17.144532-8.578125 33.769532-16.304687 49.382813l-31.328125 63.273437c-20.492188-13.984374-31.6875-38.0625-29.167969-62.746093zm-105.375-30.457031c1.136719 0 2.296876.097656 3.421876.128906 21.597656 46.277344 56.625 84.980469 100.523437 111.070313l9.726563 5.800781c-.097657 3.425781-.28125 6.816406-.65625 10.105469-.039063.296875-.054688.59375-.054688.894531v61.199219l-30.25 37.800781 12.496094 10 17.753906-22.199219v46.941407l-66.855469 109.25c-5.828125 8.183593-15.261719 13.03125-25.304687 13.007812-6.105469-.023438-12.074219-1.820312-17.175782-5.167969-11.296874-7.433593-25.925781-7.453125-37.242187-.054687-5.125 3.378906-11.125 5.191406-17.261719 5.222656-9.875.058594-19.175781-4.617188-25.015625-12.574219l-67.144531-109.683593v-46.941407l17.75 22.199219 12.496094-10-30.246094-37.800781v-61.199219c0-.304688-.015625-.609375-.050781-.910156-.414063-3.585938-.613281-6.882813-.71875-10.082032l9.785156-5.832031c43.894531-26.085937 78.921875-64.78125 100.519531-111.046875 1.144532 0 2.261719-.128906 3.421875-.128906zm-178.558593-39.40625 11.78125 28.550781c6.417969 15.550781 16.507812 29.316407 29.402343 40.121094.578126.484375 1.222657.882813 1.910157 1.191406l16.082031 7.054688c2.515625 24.679687-8.675781 48.761719-29.167969 62.746093l-31.289062-63.273437c-7.742188-15.613281-13.242188-32.238281-16.34375-49.382813l-9.066407-50.402343c12.089844 3.152343 21.980469 11.824219 26.691407 23.394531zm0 0"/><path d="m274.550781 326.511719-14.761719 18.007812-51.789062 7.402344-51.59375-7.378906-13.351562-17.757813c-.226563-.300781-.472657-.582031-.734376-.847656-8.015624-7.648438-20.625-7.648438-28.640624 0-7.011719 6.980469-7.929688 18.019531-2.160157 26.0625l20.871094 29.222656c6.515625 11.539063 12.023437 23.613282 16.464844 36.097656 3.460937 8.875 12.019531 14.707032 21.542969 14.679688 5.277343-.015625 10.394531-1.816406 14.519531-5.113281 6.050781-5.648438 13.605469-9.429688 21.753906-10.886719h4.046875c8.144531 1.460938 15.691406 5.242188 21.734375 10.886719 4.125 3.292969 9.238281 5.09375 14.515625 5.113281 9.539062.058594 18.132812-5.773438 21.597656-14.664062 4.445313-12.480469 9.957032-24.558594 16.472656-36.097657l20.839844-29.238281c6.195313-8.691406 4.574219-20.703125-3.703125-27.441406-8.28125-6.738282-20.367187-5.890625-27.625 1.9375zm-27.472656 36-5.992187 8.71875-3.664063-7.335938zm-68.503906 1.382812-3.664063 7.335938-5.992187-8.71875zm114.28125-21.175781-20.855469 29.226562c-7.378906 12.550782-13.519531 25.789063-18.34375 39.527344-.90625 2.070313-2.707031 3.609375-4.890625 4.179688-2.183594.574218-4.511719.109375-6.3125-1.253906-8.785156-7.945313-19.820313-12.976563-31.582031-14.398438h-4.351563c-11.753906 1.429688-22.777343 6.457031-31.5625 14.398438-1.796875 1.363281-4.121093 1.828124-6.304687 1.257812-2.1875-.570312-3.988282-2.109375-4.894532-4.175781-4.832031-13.734375-10.972656-26.96875-18.335937-39.527344l-20.878906-29.234375c-1.210938-1.6875-1.019531-4.007812.457031-5.472656 1.558594-1.492188 3.984375-1.617188 5.6875-.285156l14.785156 19.671874 23.933594 34.824219c1.492188 2.171875 3.957031 3.46875 6.59375 3.472657h.550781c2.828125-.195313 5.339844-1.867188 6.609375-4.402344l12.117188-24.238282 11.585937 1.65625c.753907.101563 1.519531.101563 2.273438 0l11.582031-1.65625 12.121094 24.238282c1.265625 2.535156 3.78125 4.207031 6.605468 4.402344h.554688c2.632812-.003907 5.097656-1.300782 6.589844-3.472657l23.808594-34.65625 16-19.578125c1.679687-1.605468 4.328124-1.605468 6.007812 0 1.488281 1.472656 1.675781 3.804688.449219 5.496094zm0 0"/><path d="m200 264v56h-3.058594l-3.78125-7.574219c-2.085937-4.152343-5.453125-7.515625-9.601562-9.601562-10.585938-5.289063-23.453125-.988281-28.734375 9.601562l-2 4 14.320312 7.148438 2-4c1.351563-2.65625 4.59375-3.726563 7.261719-2.398438 1.039062.519531 1.882812 1.359375 2.402344 2.398438l6 12c1.359375 2.722656 4.148437 4.4375 7.191406 4.425781h32c3.046875.015625 5.835938-1.699219 7.199219-4.425781l6-12c.519531-1.039063 1.359375-1.878907 2.398437-2.398438 2.671875-1.339843 5.917969-.265625 7.265625 2.398438l2 4 14.320313-7.148438-2-4c-5.28125-10.589843-18.152344-14.890625-28.738282-9.601562-4.148437 2.085937-7.511718 5.449219-9.597656 9.601562l-3.792968 7.574219h-3.054688v-56zm0 0"/><path d="m184 208c-.019531 5.886719-3.285156 11.285156-8.488281 14.039062-.050781 0-.097657 0-.144531.039063-2.261719 1.234375-4.792969 1.890625-7.367188 1.921875h-32.9375c-1.828125-.011719-3.652344-.144531-5.464844-.398438-1.402344-.199218-2.796875-.464843-4.175781-.800781-.285156-.074219-.582031-.121093-.878906-.199219-3.402344-.9375-6.679688-2.277343-9.761719-4l-.117188-.042968c-.921874-.519532-1.875-.972656-2.761718-1.597656l-11.464844-7.648438-8.878906 13.3125 8.679687 5.78125c-5.453125 12.03125-5.652343 25.785156-.558593 37.96875.839843 2.023438 2.472656 3.617188 4.519531 4.402344l53.9375 20.734375c.910156.355469 1.882812.539062 2.863281.535156 1.183594-.007813 2.355469-.28125 3.421875-.800781 16.738281-7.917969 27.457031-24.730469 27.578125-43.246094-.027344-5.492188-1.03125-10.9375-2.96875-16.078125 6.941406-6.015625 10.941406-14.738281 10.96875-23.921875v-16h-16zm-8 40c.03125 11.210938-5.875 21.597656-15.519531 27.304688l-47.128907-18.128907c-2.097656-6.964843-1.753906-14.433593.96875-21.175781.261719.105469.535157.167969.796876.273438 1.796874.671874 3.621093 1.253906 5.472656 1.742187 1.601562.421875 3.199218.777344 4.800781 1.074219.839844.140625 1.679687.253906 2.535156.359375.855469.101562 1.601563.230469 2.402344.304687-1.523437 2.480469-2.328125 5.335938-2.328125 8.246094 0 8.835938 7.164062 16 16 16s16-7.164062 16-16c-.015625-2.816406-.785156-5.578125-2.226562-8h10.226562c2.246094-.003906 4.488281-.25 6.6875-.726562.863281 2.828124 1.304688 5.769531 1.3125 8.726562zm0 0"/><path d="m226.96875 231.921875c-1.941406 5.140625-2.945312 10.585937-2.96875 16.078125.09375 18.539062 10.816406 35.382812 27.574219 43.3125 1.070312.515625 2.238281.789062 3.425781.800781.980469 0 1.949219-.183593 2.863281-.539062l53.933594-20.734375c2.046875-.785156 3.679687-2.375 4.523437-4.398438 5.09375-12.1875 4.890626-25.941406-.5625-37.96875l8.679688-5.785156-8.878906-13.3125-11.464844 7.648438c-.886719.59375-1.839844 1.039062-2.757812 1.601562l-.121094.039062c-3.078125 1.722657-6.355469 3.066407-9.761719 4-.292969.078126-.589844.128907-.878906.199219-1.378907.339844-2.769531.605469-4.175781.800781-1.808594.253907-3.636719.386719-5.464844.398438h-32.933594c-2.578125-.027344-5.105469-.6875-7.371094-1.917969-.046875 0-.09375 0-.140625-.039062-5.226562-2.765625-8.492187-8.195313-8.488281-14.105469v-16h-16v16c.023438 9.183594 4.023438 17.90625 10.96875 23.921875zm31.253906 8.078125c-1.441406 2.421875-2.207031 5.183594-2.222656 8 0 8.835938 7.164062 16 16 16s16-7.164062 16-16c-.011719-2.90625-.828125-5.75-2.351562-8.222656.796874-.074219 1.597656-.191406 2.398437-.304688.800781-.113281 1.695313-.214844 2.535156-.359375 1.601563-.289062 3.199219-.648437 4.800781-1.074219 1.851563-.488281 3.679688-1.070312 5.472657-1.742187.261719-.105469.535156-.167969.800781-.273437 2.714844 6.738281 3.058594 14.195312.964844 21.152343l-47.101563 18.128907c-9.648437-5.707032-15.554687-16.09375-15.519531-27.304688.003906-2.957031.445312-5.898438 1.3125-8.726562 2.195312.476562 4.4375.722656 6.6875.726562zm0 0"/></svg>