<svg height="423pt" viewBox="-59 0 423 423.96853" width="423pt" xmlns="http://www.w3.org/2000/svg"><path d="m118.085938 77.832031c22.507812 6.441407 46.371093 6.441407 68.878906 0l16-4.566406c3.667968-17.339844 5.519531-35.015625 5.519531-52.738281v-9.808594c-35.964844-14.363281-76.089844-14.289062-112 .210938v9.597656c.023437 17.726562 1.902344 35.402344 5.601563 52.738281zm0 0"/><path d="m191.964844 110.730469c2.398437-6.457031 4.640625-12.96875 6.542968-19.5625l-7.199218 2.054687c-25.378906 7.265625-52.285156 7.265625-77.664063 0l-7.152343-2.039062c1.894531 6.5625 4 13.074218 6.449218 19.503906l.109375.082031 11.847657-5.929687c2.484374-1.242188 5.429687-1.109375 7.792968.347656 2.359375 1.460938 3.796875 4.039062 3.792969 6.8125v40h32v-40c0-2.773438 1.433594-5.347656 3.792969-6.808594 2.355468-1.457031 5.300781-1.589844 7.78125-.351562l11.851562 5.929687zm0 0"/><path d="m267.683594 87.367188-23.640625 7.882812-40.757813 27.152344c-.199218.140625-.402344.277344-.617187.40625l-5.742188 3.832031c-2.390625 1.578125-5.433593 1.769531-8 .503906l-4.441406-2.199219v22.742188l58.761719-26.085938zm0 0"/><path d="m68.925781 81.34375 22.398438 14.9375c-7.191407-24.609375-10.839844-50.117188-10.839844-75.753906v-2.175782c-21.550781 11.679688-39.980469 28.359376-53.742187 48.640626l40.269531 13.425781c.679687.21875 1.320312.53125 1.914062.925781zm0 0"/><path d="m33.476562 161.535156-14.015624-11.3125c-.566407-.460937-1.0625-1-1.480469-1.597656l-15.382813-21.503906c-.210937 1.121094-.402344 2.207031-.554687 3.199218v.230469l-.0625.546875c-.296875 2.335938-.585938 4.589844-.800781 6.816406-.230469 2.09375-.375 4.0625-.449219 6.085938-.140625 2.402344-.191407 4.71875-.207031 7.039062l27.808593 13.921876c1.601563-1.300782 3.324219-2.449219 5.144531-3.425782zm0 0"/><path d="m286.085938 178.136719c.992187 2.464843 1.667968 5.046875 2.015624 7.679687.046876.359375 0 .703125 0 1.070313l16.382813 8.167969v-26.109376zm0 0"/><path d="m268.484375 179.257812c-.105469-.152343-.328125-.351562-.472656-.519531-.328125-.355469-.695313-.683593-1.054688-1.007812l-6.664062-3.578125c-.789063-.210938-1.589844-.359375-2.402344-.441406h-.214844c-1.066406-.089844-2.136719-.070313-3.199219.058593l-39.710937 4.800781c-8.773437 1.050782-15.03125 9.011719-13.984375 17.78125 1.078125 8.761719 9.023438 15.003907 17.789062 13.984376l39.714844-4.800782c1.839844-.222656 3.625-.761718 5.277344-1.597656.292969-.167969.597656-.320312.90625-.457031 1.726562-1.011719 3.253906-2.335938 4.496094-3.902344 1.816406-2.328125 2.949218-5.113281 3.269531-8.050781 0-.175782.074219-.351563.089844-.527344.351562-4.128906-.941407-8.234375-3.601563-11.414062-.101562-.167969-.199218-.234376-.238281-.328126zm-23.417969 23.144532c-2.625 3.367187-6.511718 5.519531-10.757812 5.964844-.648438.085937-1.300782.128906-1.953125.128906-3.535157-.007813-6.964844-1.210938-9.734375-3.40625-3.320313-2.609375-5.472656-6.425782-5.992188-10.617188-1.09375-8.777344 5.140625-16.78125 13.917969-17.871094 8.78125-1.09375 16.78125 5.140626 17.875 13.917969v.160157c.472656 4.195312-.734375 8.410156-3.355469 11.722656zm0 0"/><path d="m82.339844 205.054688c-2.804688 2.226562-6.277344 3.433593-9.855469 3.433593-.625 0-1.246094-.039062-1.863281-.121093l15.816406 1.898437c6.421875.769531 12.679688-2.40625 15.851562-8.046875 3.167969-5.640625 2.632813-12.632812-1.363281-17.722656-2.617187-3.347656-6.460937-5.507813-10.679687-6l-15.875-1.902344c6.429687.765625 11.761718 5.328125 13.511718 11.558594 1.753907 6.230468-.421874 12.902344-5.511718 16.902344zm0 0"/><path d="m112.484375 282.234375 40 13.335937 40-13.335937v-13.953125l-20.441406-13.601562c-.734375-.507813-1.378907-1.144532-1.902344-1.871094-.132813-.167969-.253906-.34375-.367187-.527344-.476563-.71875-.828126-1.511719-1.050782-2.34375v-.152344c-.144531-.585937-.226562-1.183594-.238281-1.785156v-80h-32v80c-.015625.859375-.171875 1.710938-.464844 2.519531-.0625.191407-.136719.378907-.214843.570313-.339844.839844-.816407 1.621094-1.417969 2.300781l-.117188.105469c-.40625.433594-.859375.820312-1.34375 1.160156l-20.441406 13.625zm0 0"/><path d="m237.957031 80.417969 40.40625-13.472657c-5.394531-8.042968-11.558593-15.542968-18.398437-22.402343-10.480469-10.488281-22.433594-19.394531-35.480469-26.4375v2.398437c.007813 25.628906-3.628906 51.125-10.808594 75.730469l22.402344-14.914063c.582031-.386718 1.214844-.6875 1.878906-.902343zm0 0"/><path d="m108.042969 126.65625-47.101563-31.40625-23.65625-7.882812 24.4375 34.234374 58.761719 26.085938v-22.742188l-4.425781 2.214844c-2.570313 1.273438-5.625 1.082032-8.015625-.503906zm0 0"/><path d="m285.507812 150.222656-14.007812 11.3125c1.6875.902344 3.296875 1.949219 4.800781 3.128906.144531.097657.296875.167969.421875.273438l27.761719-13.863281c0-2.273438-.0625-4.585938-.199219-6.832031-.136718-2.25-.234375-4.195313-.449218-6.144532-.238282-2.617187-.550782-5.105468-.863282-7.585937-.191406-1.230469-.367187-2.3125-.578125-3.375l-15.382812 21.519531c-.425781.589844-.933594 1.117188-1.503907 1.566406zm0 0"/><path d="m264.484375 336c-1.5 0-2.96875-.421875-4.238281-1.214844l-60.800782-38.007812-44.425781 14.808594c-1.640625.554687-3.414062.554687-5.054687 0l-44.433594-14.785157-60.800781 38.007813c-2.664063 1.667968-6.0625 1.617187-8.679688-.128906l-29.230469-19.480469c14.710938 50.601562 54.773438 89.851562 105.664063 103.519531v-2.71875c0-22.089844 17.910156-40 40-40s40 17.910156 40 40v2.71875c50.890625-13.671875 90.949219-52.921875 105.664063-103.519531l-29.222657 19.464843c-1.316406.875-2.863281 1.339844-4.441406 1.335938zm-40.417969 18.527344c-1.398437 4.1875-5.921875 6.449218-10.109375 5.058594l-44.855469-14.945313-13.042968 6.519531c-2.25 1.125-4.898438 1.125-7.148438 0l-13.042968-6.519531-44.855469 14.945313c-4.195313 1.394531-8.730469-.875-10.128907-5.074219-1.394531-4.195313.875-8.730469 5.074219-10.128907l48-16c2.007813-.679687 4.207031-.527343 6.101563.425782l12.425781 6.246094 12.425781-6.214844c1.894532-.957032 4.09375-1.109375 6.101563-.421875l48 16c4.1875 1.398437 6.449219 5.921875 5.054687 10.109375zm0 0"/><path d="m32.742188 187.71875c-1.050782 8.773438 5.210937 16.734375 13.980468 17.785156l23.800782 2.855469c-8.773438-1.046875-15.035157-9.011719-13.988282-17.785156 1.050782-8.777344 9.015625-15.039063 17.789063-13.988281l-23.792969-2.847657c-8.773438-1.054687-16.742188 5.207031-17.789062 13.980469zm0 0"/><path d="m281.285156 209.601562 23.199219 15.453126v-12.109376l-19.304687-9.648437c-1.050782 2.242187-2.359376 4.359375-3.894532 6.304687zm0 0"/><path d="m166.882812 396.800781c-7.269531-5.453125-17-6.332031-25.132812-2.265625-8.128906 4.066406-13.265625 12.375-13.265625 21.464844v6.023438c1.75.273437 3.511719.496093 5.28125.714843 1.941406.238281 3.886719.527344 5.839844.6875 4 .335938 8.070312.527344 12.160156.542969h1.4375c4.089844 0 8.144531-.207031 12.160156-.542969 1.953125-.160156 3.898438-.449219 5.839844-.6875 1.769531-.21875 3.527344-.441406 5.28125-.714843v-6.023438c-.019531-7.550781-3.570313-14.65625-9.601563-19.199219zm0 0"/><path d="m260.148438 221.402344-39.710938 4.796875c-1.273438.148437-2.554688.222656-3.832031.226562-16.964844.039063-31.011719-13.171875-32.019531-30.105469-1.003907-16.9375 11.382812-31.710937 28.234374-33.679687l37.433594-4.480469 24.359375-19.65625 22.710938-31.785156c-2.277344-7.347656-5.109375-14.511719-8.472657-21.429688l-33.863281 47.398438c-.824219 1.167969-1.949219 2.089844-3.257812 2.664062l-67.246094 29.847657v77.648437l79.265625 36 40.734375-27.128906v-7.4375l-37.070313-24.722656c-2.339843.902344-4.78125 1.519531-7.265624 1.84375zm0 0"/><path d="m261.171875 295.28125-52.6875-23.945312v12.222656l55.855469 34.921875 38.640625-25.734375c.960937-6.875 1.460937-13.804688 1.503906-20.746094v-1.054688l-35.558594 23.710938c-2.304687 1.535156-5.234375 1.769531-7.753906.625zm0 0"/><path d="m16.851562 185.816406c.34375-2.625 1.019532-5.195312 2.007813-7.648437l-18.375-9.207031v26.113281l16.34375-8.152344c.03125-.371094-.023437-.738281.023437-1.105469zm0 0"/><path d="m19.796875 203.320312-19.3125 9.632813v12.101563l23.199219-15.453126c-1.53125-1.9375-2.835938-4.046874-3.886719-6.28125zm0 0"/><path d="m96.484375 283.570312v-12.234374l-52.6875 23.945312c-1.039063.476562-2.167969.722656-3.3125.71875-1.582031 0-3.125-.464844-4.441406-1.34375l-35.558594-23.710938v1.054688c.042969 6.945312.546875 13.875 1.511719 20.753906l38.632812 25.726563zm0 0"/><path d="m120.484375 242.847656v-77.648437l-67.25-29.886719c-1.304687-.578125-2.429687-1.496094-3.253906-2.664062l-33.839844-47.367188c-3.371094 6.925781-6.203125 14.097656-8.480469 21.457031l22.695313 31.726563 24.359375 19.65625 37.433594 4.480468c16.851562 1.964844 29.238281 16.742188 28.234374 33.679688-1.007812 16.933594-15.054687 30.140625-32.019531 30.101562-1.28125 0-2.558593-.078124-3.832031-.222656l-39.710938-4.800781c-2.476562-.320313-4.90625-.933594-7.238281-1.824219l-37.097656 24.746094v7.4375l40.734375 27.152344zm0 0"/></svg>