<svg id="Layer_2" height="512" viewBox="0 0 64 64" width="512" xmlns="http://www.w3.org/2000/svg" xmlns:xlink="http://www.w3.org/1999/xlink" data-name="Layer 2"><linearGradient id="linear-gradient" gradientUnits="userSpaceOnUse" x1="66.079" x2="5.561" y1="5.079" y2="65.598"><stop offset="0" stop-color="#f7941e"/><stop offset="1" stop-color="#ee2a7b"/></linearGradient><linearGradient id="linear-gradient-2" x1="56.751" x2="-3.767" xlink:href="#linear-gradient" y1="-4.249" y2="56.27"/><linearGradient id="linear-gradient-3" x1="70.992" x2="10.473" xlink:href="#linear-gradient" y1="9.992" y2="70.51"/><linearGradient id="linear-gradient-4" x1="53.5" x2="-7.019" xlink:href="#linear-gradient" y1="-7.5" y2="53.019"/><linearGradient id="linear-gradient-5" x1="60.5" x2="-.019" xlink:href="#linear-gradient" y1="-.5" y2="60.019"/><linearGradient id="linear-gradient-6" x1="57" x2="-3.519" xlink:href="#linear-gradient" y1="-4" y2="56.518"/><linearGradient id="linear-gradient-7" x1="66.528" x2="6.01" xlink:href="#linear-gradient" y1="5.528" y2="66.047"/><linearGradient id="linear-gradient-8" x1="56.25" x2="-4.269" xlink:href="#linear-gradient" y1="-4.75" y2="55.769"/><linearGradient id="linear-gradient-9" x1="58.25" x2="-2.269" xlink:href="#linear-gradient" y1="-2.75" y2="57.769"/><path d="m10 41.688a16.977 16.977 0 0 0 7.593 14.159l11.634 7.313a5.009 5.009 0 0 0 2.78.844 4.945 4.945 0 0 0 2.744-.829l11.679-7.343a16.966 16.966 0 0 0 7.57-14.144 1 1 0 0 0 -1-1 .988.988 0 0 0 -.939.7l-6.561 3.744a1 1 0 1 0 .992 1.736l5.348-3.056a14.943 14.943 0 0 1 -6.5 10.341l-11.676 7.347a3 3 0 0 1 -3.351-.015l-11.633-7.317a14.963 14.963 0 0 1 -6.524-10.356l5.344 3.056a1 1 0 0 0 .992-1.736l-6.492-3.712v-4.5l8.427 5.9a1 1 0 1 0 1.146-1.639l-9.573-6.702v-4.479a1 1 0 0 0 -2 0z" fill="url(#linear-gradient)"/><path d="m11 27a1 1 0 0 0 1-1 15.016 15.016 0 0 1 15-15h10a15.016 15.016 0 0 1 15 15v8.479l-9.573 6.7a1 1 0 1 0 1.146 1.639l8.427-5.897v.079a1 1 0 0 0 2 0v-11a16.894 16.894 0 0 0 -3.04-9.675 15.994 15.994 0 0 0 -.093-15.825.984.984 0 0 0 -.889-.5 17.167 17.167 0 0 0 -9.564 3.189 16.916 16.916 0 0 0 -5.026 5.811h-6.776a16.916 16.916 0 0 0 -5.026-5.811 17.185 17.185 0 0 0 -9.564-3.189 1.064 1.064 0 0 0 -.89.5 15.972 15.972 0 0 0 -.089 15.817 16.893 16.893 0 0 0 -3.043 9.683 1 1 0 0 0 1 1zm30.586-22.189a15.1 15.1 0 0 1 7.835-2.784 13.967 13.967 0 0 1 .172 12.594 17.066 17.066 0 0 0 -5.149-3.88l2.356-3.141a1 1 0 1 0 -1.6-1.2l-2.659 3.546a16.884 16.884 0 0 0 -4.869-.912 14.822 14.822 0 0 1 3.914-4.223zm-28.586 3.222a14.107 14.107 0 0 1 1.58-6.007 15.121 15.121 0 0 1 7.835 2.784 14.822 14.822 0 0 1 3.914 4.224 16.884 16.884 0 0 0 -4.869.912l-2.66-3.546a1 1 0 1 0 -1.6 1.2l2.355 3.141a17.067 17.067 0 0 0 -5.148 3.879 14.01 14.01 0 0 1 -1.407-6.587z" fill="url(#linear-gradient-2)"/><path d="m25.52 51.448a5.015 5.015 0 0 0 6.48-1.333 4.981 4.981 0 0 0 6.48 1.333l1.016-.58a1 1 0 0 0 .211-.161l2-2-1.414-1.414-1.905 1.907-.9.514a3 3 0 0 1 -4.488-2.607v-5.107h-2v5.107a3 3 0 0 1 -4.488 2.6l-1.064-.606-2-1-.895 1.789 1.951.974z" fill="url(#linear-gradient-3)"/><path d="m27 22a1 1 0 0 0 0-2h-4a1 1 0 0 0 0 2z" fill="url(#linear-gradient-4)"/><path d="m36 21a1 1 0 0 0 1 1h4a1 1 0 0 0 0-2h-4a1 1 0 0 0 -1 1z" fill="url(#linear-gradient-5)"/><path d="m15.345 24.244a1 1 0 0 0 -.328.935c.02.121 2.256 11.754 12.883 12.821h.1a1 1 0 0 0 1-1v-2.955a7.99 7.99 0 0 0 -5.47-7.589l-7.214-2.4a.992.992 0 0 0 -.971.188zm7.555 4.109a5.993 5.993 0 0 1 4.1 5.692v1.8c-6.1-1.161-8.632-6.506-9.556-9.312z" fill="url(#linear-gradient-6)"/><path d="m48.983 25.179a1 1 0 0 0 -1.3-1.127l-7.214 2.4a7.99 7.99 0 0 0 -5.469 7.593v2.955a1 1 0 0 0 1 1h.1c10.627-1.067 12.863-12.7 12.883-12.821zm-11.983 10.668v-1.8a5.993 5.993 0 0 1 4.1-5.692l5.453-1.817c-.921 2.803-3.453 8.148-9.553 9.309z" fill="url(#linear-gradient-7)"/><path d="m37 14h-1a1 1 0 0 0 0 2h1a1 1 0 0 0 0-2z" fill="url(#linear-gradient-8)"/><path d="m41 16a1 1 0 0 0 0-2h-1a1 1 0 0 0 0 2z" fill="url(#linear-gradient-9)"/></svg>