<svg width="54" height="20" viewBox="0 0 54 20" fill="none" xmlns="http://www.w3.org/2000/svg">
<g clip-path="url(#clip0)">
<path d="M0.0137806 19.5156L0.700247 16.9079L1.38636 14.3004C1.38938 14.2892 1.39544 14.2796 1.39935 14.2687C1.40363 14.2566 1.40825 14.2454 1.41377 14.2336C1.43442 14.1888 1.45988 14.1468 1.49424 14.1124C1.49442 14.1122 1.49442 14.112 1.4946 14.1119L13.5722 2.03406L15.2191 0.387143C15.6838 -0.0778597 16.4411 -0.0778597 16.9064 0.387143L19.6512 3.13194C20.1163 3.5973 20.1163 4.35427 19.6512 4.81927L18.0043 6.46619L5.92672 18.544C5.92654 18.5442 5.92637 18.5442 5.92619 18.5443C5.89165 18.5789 5.84946 18.6045 5.80442 18.6252C5.7932 18.6303 5.78234 18.635 5.77059 18.6391C5.75956 18.643 5.74976 18.6494 5.73837 18.6524L3.13047 19.3385L0.522932 20.0248C0.487505 20.0339 0.452078 20.0383 0.416651 20.0383C0.307522 20.0383 0.201063 19.9954 0.122019 19.9162C0.0171623 19.8115 -0.023962 19.659 0.0137806 19.5156ZM3.14952 18.4715L4.82439 18.0309L2.00767 15.2142L1.56705 16.8885L2.15116 17.4728L3.14952 18.4715ZM17.1206 6.17173L15.7883 4.83939L4.29992 16.3279L5.63209 17.6601L17.1206 6.17173ZM2.37849 14.4065L3.71066 15.7387L15.199 4.2503L13.8668 2.91796L2.37849 14.4065ZM19.062 3.72121L16.3174 0.976587C16.2474 0.906445 16.155 0.871195 16.0626 0.871195C15.9706 0.871195 15.8782 0.906444 15.8082 0.976409L14.4561 2.32869L16.6869 4.55971L17.7097 5.58247L19.062 4.23001C19.2023 4.0899 19.2019 3.86167 19.062 3.72121ZM2.21685 18.717L1.94927 18.4496L1.3212 17.8217L1.00146 19.0369L2.21685 18.717Z" fill="url(#paint0_linear)"/>
</g>
<path d="M53.6713 3.02438C53.6709 3.02438 53.6709 3.02406 53.6706 3.02406L50.9753 0.32875C50.7659 0.119688 50.4759 0 50.1806 0H35.1244C34.5044 0 34 0.504375 34 1.12437V18.8756C34 19.4956 34.5044 20 35.1244 20H52.8756C53.4956 20 54 19.4956 54 18.8756V3.81906C54 3.52375 53.88 3.23438 53.6713 3.02438ZM53.375 18.8756C53.375 19.1509 53.1509 19.375 52.8756 19.375H35.1244C34.8491 19.375 34.625 19.1509 34.625 18.8756V1.12437C34.625 0.849063 34.8491 0.625 35.1244 0.625H50.1806C50.3119 0.625 50.4409 0.678125 50.5338 0.770938L53.2288 3.46594C53.3216 3.55937 53.375 3.68812 53.375 3.81906V18.8756Z" fill="url(#paint1_linear)"/>
<path d="M50.3119 10.9781H37.6885C37.516 10.9781 37.376 11.1178 37.376 11.2906V19.6875C37.376 19.8603 37.516 20 37.6885 20H50.3119C50.4847 20 50.6244 19.8603 50.6244 19.6875V11.2906C50.6244 11.1178 50.4847 10.9781 50.3119 10.9781ZM49.9994 19.375H38.001V11.6031H49.9994V19.375Z" fill="url(#paint2_linear)"/>
<path d="M48.9909 12.6156H39.0059V13.2406H48.9909V12.6156Z" fill="url(#paint3_linear)"/>
<path d="M48.9909 14.3231H39.0059V14.9481H48.9909V14.3231Z" fill="url(#paint4_linear)"/>
<path d="M48.9909 16.0312H39.0059V16.6562H48.9909V16.0312Z" fill="url(#paint5_linear)"/>
<path d="M48.9909 17.7372H39.0059V18.3622H48.9909V17.7372Z" fill="url(#paint6_linear)"/>
<path d="M49.5421 0H38.458C38.2855 0 38.1455 0.14 38.1455 0.3125V6.10594C38.1455 6.62625 38.5686 7.04938 39.0889 7.04938H48.9111C49.4314 7.04938 49.8546 6.62625 49.8546 6.10594V0.3125C49.8546 0.14 49.7149 0 49.5421 0ZM49.2299 6.10594C49.2299 6.28156 49.0871 6.42438 48.9111 6.42438H39.0889C38.9133 6.42438 38.7705 6.28156 38.7705 6.10594V0.625H49.2299V6.10594Z" fill="url(#paint7_linear)"/>
<path d="M47.9519 1.47188H46.3726C46.1997 1.47188 46.0601 1.61188 46.0601 1.78438V5.265C46.0601 5.4375 46.1997 5.5775 46.3726 5.5775H47.9519C48.1247 5.5775 48.2644 5.4375 48.2644 5.265V1.78438C48.2644 1.61188 48.1247 1.47188 47.9519 1.47188ZM47.6397 4.9525H46.6854V2.09688H47.6397V4.9525Z" fill="url(#paint8_linear)"/>
<defs>
<linearGradient id="paint0_linear" x1="10" y1="0.0383911" x2="10" y2="20.0383" gradientUnits="userSpaceOnUse">
<stop stop-color="#3F51B5"/>
<stop offset="0.484375" stop-color="#673AB7"/>
<stop offset="1" stop-color="#9C27B0"/>
</linearGradient>
<linearGradient id="paint1_linear" x1="44" y1="0" x2="44" y2="20" gradientUnits="userSpaceOnUse">
<stop stop-color="#3F51B5"/>
<stop offset="0.458333" stop-color="#673AB7"/>
<stop offset="1" stop-color="#9C27B0"/>
</linearGradient>
<linearGradient id="paint2_linear" x1="44.0002" y1="10.9781" x2="44.0002" y2="20" gradientUnits="userSpaceOnUse">
<stop stop-color="#3F51B5"/>
<stop offset="0.458333" stop-color="#673AB7"/>
<stop offset="1" stop-color="#9C27B0"/>
</linearGradient>
<linearGradient id="paint3_linear" x1="43.9984" y1="12.6156" x2="43.9984" y2="13.2406" gradientUnits="userSpaceOnUse">
<stop stop-color="#3F51B5"/>
<stop offset="0.458333" stop-color="#673AB7"/>
<stop offset="1" stop-color="#9C27B0"/>
</linearGradient>
<linearGradient id="paint4_linear" x1="43.9984" y1="14.3231" x2="43.9984" y2="14.9481" gradientUnits="userSpaceOnUse">
<stop stop-color="#3F51B5"/>
<stop offset="0.458333" stop-color="#673AB7"/>
<stop offset="1" stop-color="#9C27B0"/>
</linearGradient>
<linearGradient id="paint5_linear" x1="43.9984" y1="16.0312" x2="43.9984" y2="16.6562" gradientUnits="userSpaceOnUse">
<stop stop-color="#3F51B5"/>
<stop offset="0.458333" stop-color="#673AB7"/>
<stop offset="1" stop-color="#9C27B0"/>
</linearGradient>
<linearGradient id="paint6_linear" x1="43.9984" y1="17.7372" x2="43.9984" y2="18.3622" gradientUnits="userSpaceOnUse">
<stop stop-color="#3F51B5"/>
<stop offset="0.458333" stop-color="#673AB7"/>
<stop offset="1" stop-color="#9C27B0"/>
</linearGradient>
<linearGradient id="paint7_linear" x1="44" y1="0" x2="44" y2="7.04938" gradientUnits="userSpaceOnUse">
<stop stop-color="#3F51B5"/>
<stop offset="0.458333" stop-color="#673AB7"/>
<stop offset="1" stop-color="#9C27B0"/>
</linearGradient>
<linearGradient id="paint8_linear" x1="47.1622" y1="1.47188" x2="47.1622" y2="5.5775" gradientUnits="userSpaceOnUse">
<stop stop-color="#3F51B5"/>
<stop offset="0.458333" stop-color="#673AB7"/>
<stop offset="1" stop-color="#9C27B0"/>
</linearGradient>
<clipPath id="clip0">
<rect width="20" height="20" fill="white" transform="matrix(-1 0 0 1 20 0)"/>
</clipPath>
</defs>
</svg>
