<svg width="1920" height="2504" viewBox="0 0 1920 2504" fill="none" xmlns="http://www.w3.org/2000/svg">
<path d="M2014 242.5C2035.5 456.5 1284.33 1090.21 1313.5 827C1356.5 439 1380.5 377 1023.5 377C790.436 377 1129.18 -306 1394 -306C1658.82 -306 2014 9.43584 2014 242.5Z" fill="#F4878D"/>
<path d="M2197 421.5C2235.48 471.335 2127.63 798.528 2008.5 890.5C1813 722 1561 771.5 1349.5 874C1311.02 824.164 1444.61 529.93 1563.73 437.959C1682.86 345.987 2158.52 371.664 2197 421.5Z" fill="#F4878D"/>
<g opacity="0.3">
<path d="M1039 26C1053.48 36.9679 1080.73 47.3906 1096.3 56.9068C1100.01 59.1737 1119.82 69.3093 1123.8 71.4068C1127.65 73.4298 1156.68 90.8208 1160.3 93.4068C1170.1 100.407 1201.97 116.665 1212.3 123.06C1218.18 126.7 1265.96 161.345 1271.8 165.407C1278.56 170.11 1326.82 206.718 1333.3 211.907C1354.8 229.107 1372.62 250.311 1387.5 266.5C1404.5 285 1426.5 318.5 1437 335.962C1456 362.5 1464.5 394.5 1476 417C1483.5 445 1491.5 476.5 1494.74 492.5C1499.5 523 1502.07 538 1504.5 553.5C1510.5 602 1510 599 1514 632C1516 670 1518.5 702.5 1520.5 734.5C1521.03 743 1520.65 753 1523 763" stroke="white" stroke-opacity="0.5" stroke-width="2" stroke-linecap="round" stroke-linejoin="round"/>
<path d="M1303 778.5C1326 759 1429.5 673.5 1447 652.5C1470 627.5 1497.97 601 1508.5 587.5C1528 562.5 1540 549.5 1551.5 537C1579.9 497.229 1583.12 496.005 1602.5 469C1626.74 439.667 1641.82 410.916 1662 386C1667.36 379.382 1674.65 366.955 1679.68 358" stroke="white" stroke-opacity="0.5" stroke-width="2" stroke-linecap="round" stroke-linejoin="round"/>
<path d="M1020 61.6695C1037.08 67.8455 1067.31 74.0351 1085 78.5C1089.22 79.5636 1114.57 86.68 1119 87.5C1123.27 88.2909 1155.78 96.1053 1160 97.5C1171.44 101.276 1204 110 1225 113.5C1231.7 115.231 1278.22 126.355 1285 128.5C1292.85 130.985 1353.09 144.463 1361 147C1387.5 155.5 1440.19 168.576 1461.5 174C1488.5 180.873 1563.5 202.5 1586 210.5" stroke="white" stroke-opacity="0.5" stroke-width="2" stroke-linecap="round" stroke-linejoin="round"/>
<path d="M1134.5 376C1159.5 360 1223.41 285.771 1238.5 265.5C1259 243.5 1274 221.5 1285.5 210C1310 188 1323.68 173.037 1336.5 164C1375.5 135.5 1374.58 136.242 1402.4 118.05C1434.5 98 1423.69 104.456 1451.5 88.5C1458.89 84.2616 1507.96 58.5358 1515.89 52" stroke="white" stroke-opacity="0.5" stroke-width="2" stroke-linecap="round" stroke-linejoin="round"/>
<path d="M1919.5 547C1907.48 520.448 1863.16 442.242 1852.4 421.882C1838.77 396.083 1798.59 325.093 1789 302" stroke="white" stroke-opacity="0.5" stroke-width="2" stroke-linecap="round" stroke-linejoin="round"/>
<path d="M1920.5 348C1891.6 334.199 1833.6 310.098 1810 296" stroke="white" stroke-opacity="0.5" stroke-width="2" stroke-linecap="round" stroke-linejoin="round"/>
</g>
<path d="M1565.5 254.5C1562.5 238 1646.76 21 1306 21C968 2.00001 1031 6.00001 1002 -67C1002 -103.633 1296.24 -92 1637 -92C1977.76 -92 1642.5 225 1565.5 254.5Z" fill="#F6C705"/>
<path d="M2234.5 246.5C2243.21 330.952 2047.5 288.5 1817.5 297.5C1727.62 320.856 1749.5 343.5 1623.5 374.5C1484.6 374.5 1623.5 87.1204 1623.5 -14.5C1623.5 -116.12 1627.6 -34.5 1766.5 -34.5C1905.4 -34.5 2219.5 101 2234.5 246.5Z" fill="#F6C705"/>
<path d="M1722.5 1918C1722.5 2336.36 1737.5 2510.5 1697.5 2503.5C1608.82 2487.98 1405.19 2083.91 801.5 1905C431.726 1795.41 -656.19 1970.96 -1272.5 1989C-1272.5 1570.64 -666.774 1031.5 469 1031.5C1604.77 1031.5 1722.5 1499.64 1722.5 1918Z" fill="#F7EAF6"/>
<path d="M1648.5 2218C233.5 1487.5 24.5 2171 -336.5 2448.5C-451.597 2536.98 -2.50073 1789.5 -1625 1837C-1625 1418.64 -1201.77 894.5 -66 894.5C-35.5164 902.006 -32 1060 710.5 1029.5C1450.53 999.102 1768.5 2150.5 1648.5 2218Z" fill="#F7EAF6"/>
</svg>
