<svg width="22" height="25" viewBox="0 0 22 25" fill="none" xmlns="http://www.w3.org/2000/svg">
<path d="M14.428 14.3199C15.4905 14.6871 16.4476 15.2027 17.2991 15.8668C18.1585 16.523 18.8851 17.2847 19.4788 18.1519C20.0804 19.0191 20.5413 19.9683 20.8616 20.9996C21.1819 22.0308 21.3421 23.1051 21.3421 24.2222H19.8421C19.8421 22.941 19.6116 21.7535 19.1507 20.6597C18.6976 19.5582 18.0687 18.6051 17.264 17.8004C16.4593 16.9957 15.5062 16.3668 14.4046 15.9137C13.3109 15.4527 12.1234 15.2222 10.8421 15.2222C10.0062 15.2222 9.20148 15.3277 8.42804 15.5387C7.65461 15.7496 6.93195 16.0504 6.26007 16.441C5.59601 16.8238 4.99054 17.2887 4.44367 17.8355C3.90461 18.3746 3.43976 18.9801 3.04914 19.6519C2.66632 20.316 2.36945 21.0347 2.15851 21.8082C1.94757 22.5816 1.84211 23.3863 1.84211 24.2222H0.342106C0.342106 23.0972 0.506168 22.023 0.834293 20.9996C1.16242 19.9683 1.62726 19.023 2.22882 18.1637C2.83039 17.3043 3.55695 16.5465 4.40851 15.8902C5.26789 15.234 6.22492 14.7144 7.27961 14.3316C6.67023 14.0035 6.12336 13.6051 5.63898 13.1363C5.15461 12.6676 4.74054 12.148 4.39679 11.5777C4.06086 10.9996 3.79914 10.3863 3.61164 9.73787C3.43195 9.08162 3.34211 8.40974 3.34211 7.72224C3.34211 6.68318 3.53742 5.71053 3.92804 4.80428C4.31867 3.89021 4.85382 3.09334 5.53351 2.41365C6.2132 1.73396 7.00617 1.19881 7.91242 0.808182C8.82648 0.417557 9.80304 0.222244 10.8421 0.222244C11.8812 0.222244 12.8538 0.417557 13.7601 0.808182C14.6741 1.19881 15.471 1.73396 16.1507 2.41365C16.8304 3.09334 17.3655 3.89021 17.7562 4.80428C18.1468 5.71053 18.3421 6.68318 18.3421 7.72224C18.3421 8.40974 18.2484 9.07771 18.0609 9.72615C17.8812 10.3746 17.6194 10.984 17.2757 11.5543C16.9398 12.1246 16.5296 12.648 16.0452 13.1246C15.5687 13.5933 15.0296 13.9918 14.428 14.3199ZM4.84211 7.72224C4.84211 8.55037 4.99836 9.32771 5.31086 10.0543C5.63117 10.7808 6.06086 11.4176 6.59992 11.9644C7.14679 12.5035 7.78351 12.9332 8.51007 13.2535C9.23664 13.566 10.014 13.7222 10.8421 13.7222C11.6702 13.7222 12.4476 13.566 13.1741 13.2535C13.9007 12.9332 14.5335 12.5035 15.0726 11.9644C15.6194 11.4176 16.0491 10.7808 16.3616 10.0543C16.6819 9.32771 16.8421 8.55037 16.8421 7.72224C16.8421 6.89412 16.6819 6.11678 16.3616 5.39021C16.0491 4.66365 15.6194 4.03084 15.0726 3.49178C14.5335 2.9449 13.9007 2.51521 13.1741 2.20271C12.4476 1.8824 11.6702 1.72224 10.8421 1.72224C10.014 1.72224 9.23664 1.8824 8.51007 2.20271C7.78351 2.51521 7.14679 2.9449 6.59992 3.49178C6.06086 4.03084 5.63117 4.66365 5.31086 5.39021C4.99836 6.11678 4.84211 6.89412 4.84211 7.72224Z" fill="white"/>
</svg>
